<svg width="80" height="46" viewBox="0 0 80 46" fill="none" xmlns="http://www.w3.org/2000/svg">
<g opacity="0.9">
<path d="M7.50031 27.0445C6.31829 25.8759 5.74241 24.5 5.74241 22.8395V16.8948H14.5581V11.0843H5.74241V0.0078125H0V22.8395C0 26.069 1.14566 28.8696 3.40868 31.1723C5.69191 33.4445 8.47624 34.5968 11.6869 34.5968H16.7545V28.8208H11.6869C10.0361 28.8208 8.67021 28.2436 7.49829 27.0445H7.50031Z" fill="white"/>
<path d="M54.0009 34.5985V22.8412C54.0009 19.6097 52.8431 16.8172 50.5619 14.5491C48.3009 12.2505 45.5246 11.0859 42.3119 11.0859C39.0992 11.0859 36.3149 12.2505 34.0317 14.5471C31.7707 16.8213 30.625 19.6118 30.625 22.8412V34.5985H36.3674V22.8412C36.3674 21.1828 36.9413 19.8069 38.1294 18.6322C39.2912 17.4635 40.6591 16.8945 42.3119 16.8945C43.9647 16.8945 45.3327 17.4635 46.4945 18.6322C47.6563 19.8008 48.222 21.1787 48.222 22.8412V34.5985H53.9988H54.0009Z" fill="white"/>
<path d="M76.5618 14.5452C74.3008 12.2466 71.5246 11.082 68.3119 11.082C65.0992 11.082 62.3149 12.2466 60.0317 14.5432C57.7707 16.8174 56.625 19.6078 56.625 22.8373C56.625 26.0667 57.7707 28.8674 60.0337 31.17C62.3169 33.4422 65.1012 34.5946 68.3119 34.5946H79.9988V22.8373C79.9988 19.6058 78.841 16.8133 76.5598 14.5452H76.5618ZM74.222 22.8373V28.8165H68.3119C66.6611 28.8165 65.2952 28.2394 64.1233 27.0403C62.9413 25.8716 62.3654 24.4957 62.3654 22.8353C62.3654 21.1748 62.9392 19.8009 64.1273 18.6262C65.2892 17.4576 66.6591 16.8885 68.3119 16.8885C69.9647 16.8885 71.3326 17.4576 72.4945 18.6262C73.6563 19.7948 74.222 21.1728 74.222 22.8353V22.8373Z" fill="white"/>
<path d="M54.2739 7.09805C54.579 6.78507 54.7346 6.40501 54.7346 5.96602C54.7346 5.52703 54.579 5.15104 54.2719 4.84009C53.9607 4.5332 53.5829 4.3767 53.1485 4.3767H51.2208C51.1218 4.3767 51.039 4.34215 50.9683 4.27508C50.8996 4.20598 50.8672 4.12469 50.8672 4.02714C50.8672 3.92958 50.8996 3.84828 50.9662 3.78122C51.041 3.71008 51.1238 3.67553 51.2229 3.67553H54.7366V2.42969H51.2229C50.7884 2.42969 50.4106 2.58618 50.0974 2.8951C49.7923 3.20809 49.6367 3.58814 49.6367 4.0251C49.6367 4.46206 49.7923 4.84009 50.0994 5.15104C50.4106 5.45793 50.7884 5.61442 51.2229 5.61442H53.1504C53.2474 5.61442 53.3283 5.64694 53.397 5.71604C53.4657 5.78514 53.498 5.86644 53.498 5.96399C53.498 6.06155 53.4637 6.14691 53.397 6.21804C53.3283 6.28714 53.2474 6.31966 53.1504 6.31966H49.6367V7.5594H53.1504C53.5849 7.5594 53.9647 7.40291 54.2759 7.09399L54.2739 7.09805Z" fill="white"/>
<path d="M58.2766 7.56247H59.3737V6.32272H58.2766C57.9108 6.32272 57.6078 6.19468 57.3471 5.92844C57.0844 5.6683 56.9571 5.36344 56.9571 4.99558V3.67657H58.8928V2.43073H56.9571V0H55.7246V4.99558C55.7246 5.70082 55.9751 6.31256 56.4682 6.81456C56.9672 7.31046 57.5734 7.56247 58.2746 7.56247H58.2766Z" fill="white"/>
<path d="M62.5129 7.56144H65.0628V2.42969H63.8242V6.32169H62.5129C62.1472 6.32169 61.8421 6.19365 61.5835 5.9274C61.3208 5.66929 61.1935 5.3624 61.1935 4.99454V2.42969H59.9609V4.99454C59.9609 5.69978 60.2115 6.31152 60.7045 6.81352C61.2036 7.30942 61.8097 7.56144 62.5109 7.56144H62.5129Z" fill="white"/>
<path d="M70.9397 7.56247V0H69.7011V2.79452C69.3071 2.55266 68.8666 2.43073 68.3898 2.43073C67.6887 2.43073 67.0805 2.68477 66.5834 3.18677C66.0904 3.68267 65.8398 4.29238 65.8398 4.99762C65.8398 5.70285 66.0904 6.31459 66.5834 6.81659C67.0825 7.31249 67.6887 7.5645 68.3898 7.5645H70.9397V7.56247ZM69.6991 4.99762V6.32476H68.3878C68.022 6.32476 67.719 6.19672 67.4583 5.93048C67.1956 5.67033 67.0683 5.36548 67.0683 4.99762C67.0683 4.62976 67.1956 4.3249 67.4583 4.06475C67.7169 3.80461 68.02 3.6786 68.3857 3.6786C68.7515 3.6786 69.0566 3.80461 69.3132 4.06475C69.5718 4.3249 69.6971 4.62976 69.6971 4.99762H69.6991Z" fill="white"/>
<path d="M73.4533 2.42969H72.2207V7.56144H73.4533V2.42969Z" fill="white"/>
<path d="M72.8356 1.92618C73.0598 1.92618 73.2518 1.84488 73.4054 1.68432C73.563 1.52376 73.6438 1.33272 73.6438 1.11322C73.6438 0.893728 73.563 0.692522 73.4054 0.533996C73.0983 0.223043 72.5749 0.223043 72.2678 0.533996C72.1082 0.694554 72.0273 0.889663 72.0273 1.11322C72.0273 1.33679 72.1082 1.5258 72.2658 1.68432C72.4193 1.84488 72.6113 1.92618 72.8376 1.92618H72.8356Z" fill="white"/>
<path d="M76.9229 7.55941C77.6241 7.55941 78.2302 7.30739 78.7232 6.81149C79.2223 6.30949 79.4749 5.69979 79.4749 4.99455C79.4749 4.28932 79.2223 3.6796 78.7253 3.18573C78.2323 2.68373 77.6261 2.42969 76.9249 2.42969C76.2238 2.42969 75.6156 2.68373 75.1186 3.18573C74.6256 3.68163 74.375 4.29134 74.375 4.99658C74.375 5.70181 74.6256 6.31356 75.1186 6.81556C75.6177 7.31146 76.2238 7.56347 76.9249 7.56347L76.9229 7.55941ZM75.6035 4.99455C75.6035 4.62669 75.7308 4.32183 75.9935 4.06168C76.2521 3.80154 76.5552 3.67553 76.9209 3.67553C77.2866 3.67553 77.5917 3.80154 77.8484 4.06168C78.107 4.32183 78.2322 4.62669 78.2322 4.99455C78.2322 5.36241 78.107 5.66929 77.8484 5.92944C77.5897 6.19365 77.2866 6.32169 76.9209 6.32169C76.5552 6.32169 76.2501 6.19365 75.9914 5.92741C75.7288 5.66727 75.6015 5.36241 75.6015 4.99455H75.6035Z" fill="white"/>
<path d="M4.05785 40.7578L2.32422 45.9099H3.13244L3.61334 44.3876H5.3005L5.7733 45.9099H6.61588L4.87619 40.7578H4.05987H4.05785ZM3.82346 43.721L4.03158 43.0625C4.11644 42.778 4.20131 42.4975 4.28415 42.2232C4.34477 42.024 4.40336 41.8228 4.45792 41.6216C4.51651 41.8268 4.57308 42.0281 4.63168 42.2232C4.7125 42.4975 4.79939 42.778 4.8883 43.0625L5.09237 43.721H3.82143H3.82346Z" fill="white"/>
<path d="M8.58887 40.7578H7.79883V45.9099H8.58887V40.7578Z" fill="white"/>
<path d="M15.7055 44.7408C15.556 44.9095 15.3883 45.0437 15.2125 45.1372C15.0387 45.2307 14.8387 45.2774 14.6205 45.2774C14.3255 45.2774 14.0669 45.1981 13.8527 45.0457C13.6365 44.8912 13.4668 44.6656 13.3475 44.375C13.2263 44.0803 13.1657 43.7247 13.1657 43.3161C13.1657 42.9076 13.2304 42.5703 13.3556 42.2796C13.4789 41.9951 13.6526 41.7715 13.8729 41.6191C14.0911 41.4667 14.3497 41.3895 14.6427 41.3895C14.8387 41.3895 15.0186 41.4301 15.1721 41.5094C15.3297 41.5907 15.4712 41.6984 15.5944 41.8305L15.6591 41.9016L16.1056 41.363L16.0551 41.3082C15.9036 41.1415 15.7076 40.9931 15.4712 40.8651C15.2307 40.735 14.9478 40.668 14.6346 40.668C14.3215 40.668 14.0042 40.7289 13.7294 40.8509C13.4546 40.9728 13.2102 41.1517 13.0041 41.3813C12.8 41.611 12.6383 41.8935 12.5252 42.2227C12.412 42.55 12.3555 42.9239 12.3555 43.3344C12.3555 43.745 12.412 44.1189 12.5211 44.4462C12.6323 44.7754 12.7899 45.0579 12.9899 45.2876C13.1899 45.5172 13.4304 45.6961 13.7052 45.816C13.978 45.9359 14.277 45.9969 14.5942 45.9969C14.9297 45.9969 15.2307 45.9318 15.4914 45.8018C15.748 45.6737 15.9803 45.4888 16.1804 45.255L16.2289 45.2002L15.7742 44.6697L15.7096 44.7408H15.7055Z" fill="white"/>
<path d="M20.191 43.6296C20.4658 43.5157 20.684 43.341 20.8396 43.1093C20.9972 42.8755 21.078 42.5829 21.078 42.2354C21.078 41.8878 20.9972 41.5809 20.8376 41.3635C20.68 41.146 20.4597 40.9895 20.1849 40.896C19.9182 40.8046 19.607 40.7578 19.2615 40.7578H17.6289V45.9099H18.419V43.7962H19.1746L20.3789 45.9099H21.278L19.999 43.6966C20.0637 43.6783 20.1263 43.656 20.1869 43.6296H20.191ZM18.4209 41.4387H19.1686C19.5383 41.4387 19.8232 41.4996 20.0152 41.6216C20.197 41.7374 20.2859 41.9386 20.2859 42.2354C20.2859 42.5321 20.195 42.7536 20.0091 42.8999C19.8172 43.0483 19.5343 43.1235 19.1686 43.1235H18.4209V41.4366V41.4387Z" fill="white"/>
<path d="M23.3877 43.5584H25.2668V42.8512H23.3877V41.459H25.6184V40.7578H22.5977V45.9099H25.6932V45.2026H23.3877V43.5584Z" fill="white"/>
<path d="M28.2961 40.7578L26.5625 45.9099H27.3707L27.8516 44.3876H29.5388L30.0116 45.9099H30.8542L29.1145 40.7578H28.2982H28.2961ZM28.0618 43.721L28.2699 43.0625C28.3547 42.778 28.4396 42.4975 28.5224 42.2232C28.583 42.024 28.6417 41.8228 28.6962 41.6216C28.7548 41.8268 28.8114 42.0281 28.87 42.2232C28.9508 42.4975 29.0377 42.778 29.1266 43.0625L29.3307 43.721H28.0597H28.0618Z" fill="white"/>
<path d="M31.1367 41.459H32.636V45.9099H33.4341V41.459H34.9354V40.7578H31.1367V41.459Z" fill="white"/>
<path d="M37.124 40.7579H36.334V45.91H37.124V40.7579Z" fill="white"/>
<path d="M40.7626 43.5157C40.6777 43.8064 40.5989 44.0807 40.5282 44.3368C40.4756 44.5299 40.415 44.7352 40.3483 44.9465C40.2817 44.7291 40.2211 44.5238 40.1705 44.3368C40.0998 44.0807 40.0231 43.8064 39.9362 43.5157L39.1138 40.7578H38.2793L39.9139 45.9099H40.7605L42.3891 40.7578H41.5748L40.7605 43.5178L40.7626 43.5157Z" fill="white"/>
<path d="M44.3409 43.5584H46.22V42.8512H44.3409V41.459H46.5696V40.7578H43.5488V45.9099H46.6443V45.2026H44.3409V43.5584Z" fill="white"/>
<path d="M53.0811 43.3893C52.9215 43.2735 52.7416 43.1719 52.5476 43.0885L51.8465 42.7816C51.7172 42.7247 51.5899 42.6638 51.4646 42.6008C51.3495 42.5418 51.2525 42.4646 51.1777 42.3711C51.107 42.2817 51.0706 42.1679 51.0706 42.0236C51.0706 41.8285 51.1434 41.6781 51.2909 41.5642C51.4444 41.4464 51.6525 41.3874 51.9112 41.3874C52.1314 41.3874 52.3294 41.4281 52.5012 41.5053C52.6749 41.5846 52.8366 41.6923 52.9821 41.8264L53.0487 41.8874L53.4771 41.359L53.4266 41.3061C53.2488 41.1171 53.0265 40.9627 52.7679 40.8448C52.5093 40.7269 52.2203 40.668 51.9112 40.668C51.602 40.668 51.3151 40.7269 51.0706 40.8468C50.8241 40.9667 50.6261 41.1313 50.4826 41.3407C50.3372 41.5521 50.2644 41.798 50.2644 42.0723C50.2644 42.3284 50.321 42.5479 50.4321 42.7288C50.5412 42.9076 50.6807 43.0519 50.8463 43.1637C51.0019 43.2694 51.1636 43.3588 51.3212 43.43L52.0324 43.743C52.186 43.81 52.3254 43.8771 52.4466 43.9462C52.5598 44.0112 52.6507 44.0905 52.7174 44.184C52.782 44.2714 52.8123 44.3974 52.8123 44.5559C52.8123 44.7713 52.7335 44.94 52.5699 45.0742C52.4042 45.2103 52.1638 45.2794 51.8566 45.2794C51.6142 45.2794 51.3757 45.2246 51.1494 45.1168C50.9211 45.0091 50.7211 44.8648 50.5534 44.686L50.4887 44.6169L50.0078 45.1819L50.0603 45.2367C50.2786 45.4705 50.5433 45.6574 50.8484 45.7936C51.1535 45.9298 51.4909 45.9989 51.8526 45.9989C52.2143 45.9989 52.5254 45.9339 52.7881 45.8038C53.0528 45.6717 53.2609 45.4908 53.4044 45.2632C53.5478 45.0355 53.6206 44.7795 53.6206 44.501C53.6206 44.2429 53.5721 44.0214 53.4751 43.8425C53.3781 43.6637 53.2468 43.5133 53.0831 43.3934L53.0811 43.3893Z" fill="white"/>
<path d="M54.457 41.459H55.9583V45.9099H56.7544V41.459H58.2557V40.7578H54.457V41.459Z" fill="white"/>
<path d="M62.5848 43.7881C62.5848 44.1722 62.5343 44.4771 62.4333 44.6925C62.3363 44.9039 62.205 45.0563 62.0474 45.1437C61.7241 45.3205 61.2735 45.3246 60.9502 45.1437C60.7926 45.0563 60.6653 44.9039 60.5704 44.6925C60.4734 44.4771 60.4228 44.1722 60.4228 43.7861V40.7578H59.6328V43.7718C59.6328 44.1742 59.6793 44.5218 59.7722 44.8043C59.8652 45.0908 59.9985 45.3266 60.1662 45.5034C60.336 45.6802 60.536 45.8083 60.7643 45.8835C60.9886 45.9587 61.2351 45.9973 61.4937 45.9973C61.7524 45.9973 61.9989 45.9587 62.2232 45.8835C62.4515 45.8083 62.6535 45.6802 62.8253 45.5034C62.995 45.3266 63.1284 45.0908 63.2193 44.8043C63.3102 44.5197 63.3547 44.1722 63.3547 43.7718V40.7578H62.5848V43.7861V43.7881Z" fill="white"/>
<path d="M67.8462 41.0566C67.4885 40.8574 67.042 40.7578 66.5207 40.7578H65.1992V45.9099H66.5469C67.0602 45.9099 67.4986 45.8062 67.8522 45.603C68.2078 45.3977 68.4826 45.0949 68.6645 44.7047C68.8443 44.3185 68.9352 43.8511 68.9352 43.3145C68.9352 42.778 68.8443 42.3085 68.6625 41.9325C68.4806 41.5525 68.2058 41.2557 67.8441 41.0545L67.8462 41.0566ZM65.9913 41.4387H66.4681C66.8399 41.4387 67.1511 41.5118 67.3956 41.6541C67.638 41.7964 67.8219 42.0057 67.9432 42.278C68.0664 42.5544 68.129 42.904 68.129 43.3166C68.129 43.7291 68.0664 44.0706 67.9432 44.3572C67.8219 44.6376 67.638 44.8551 67.3956 45.0014C67.1511 45.1498 66.8399 45.225 66.4702 45.225H65.9933V41.4387H65.9913Z" fill="white"/>
<path d="M71.3174 40.7578H70.5273V45.9099H71.3174V40.7578Z" fill="white"/>
<path d="M76.2346 40.995C75.9053 40.7816 75.5194 40.6719 75.091 40.6719C74.6627 40.6719 74.2787 40.7796 73.9474 40.991C73.618 41.2023 73.3554 41.5112 73.1695 41.9055C72.9856 42.2978 72.8906 42.7733 72.8906 43.318C72.8906 43.8627 72.9836 44.3342 73.1695 44.7346C73.3554 45.137 73.616 45.452 73.9454 45.6695C74.2767 45.889 74.6606 45.9987 75.089 45.9987C75.5174 45.9987 75.9033 45.8869 76.2326 45.6695C76.562 45.452 76.8226 45.137 77.0085 44.7346C77.1924 44.3362 77.2874 43.8586 77.2874 43.318C77.2874 42.7774 77.1944 42.2998 77.0085 41.9096C76.8226 41.5173 76.56 41.2084 76.2306 40.995H76.2346ZM75.091 45.2793C74.8182 45.2793 74.5758 45.2 74.3676 45.0455C74.1575 44.887 73.9939 44.6594 73.8787 44.3688C73.7615 44.07 73.7029 43.7184 73.7029 43.318C73.7029 42.9176 73.7615 42.562 73.8787 42.2734C73.9939 41.9889 74.1575 41.7673 74.3676 41.6169C74.5758 41.4665 74.8203 41.3913 75.093 41.3913C75.3658 41.3913 75.6143 41.4665 75.8204 41.6169C76.0265 41.7673 76.1902 41.9889 76.3054 42.2734C76.4226 42.564 76.4812 42.9156 76.4812 43.318C76.4812 43.7204 76.4226 44.07 76.3054 44.3688C76.1902 44.6594 76.0265 44.887 75.8184 45.0455C75.6123 45.2 75.3678 45.2793 75.093 45.2793H75.091Z" fill="white"/>
<path d="M26.5901 11.082H20.8477V34.5946H26.5901V11.082Z" fill="white"/>
<path d="M23.719 7.55965C24.5576 7.55965 25.2809 7.25886 25.8709 6.66541C26.467 6.06586 26.7701 5.3342 26.7701 4.49076C26.7701 3.64733 26.467 2.91771 25.8729 2.32628C25.2829 1.72673 24.5576 1.42188 23.719 1.42188C22.8805 1.42188 22.1531 1.7247 21.557 2.32425C20.967 2.9177 20.668 3.64733 20.668 4.49076C20.668 5.3342 20.967 6.06586 21.557 6.66541C22.1531 7.25886 22.8805 7.55965 23.719 7.55965Z" fill="white"/>
</g>
</svg>
