<svg width="24" height="24" viewBox="0 0 24 24" fill="none" xmlns="http://www.w3.org/2000/svg">
<g clip-path="url(#clip0_10417_3813)">
<path d="M11.4703 23.7796C11.7609 24.0702 12.239 24.0702 12.5296 23.7796L19.2796 17.0296C19.5702 16.739 19.5702 16.2608 19.2796 15.9702C18.989 15.6796 18.5108 15.6796 18.2202 15.9702L12.7499 21.4405L12.7499 0.749893C12.7499 0.337393 12.4124 -0.000107431 11.9999 -0.000107467C11.5874 -0.000107503 11.2499 0.337392 11.2499 0.749892L11.2499 21.4405L5.77956 15.9702C5.48896 15.6796 5.01086 15.6796 4.72026 15.9702C4.42956 16.2608 4.42956 16.739 4.72026 17.0296L11.4703 23.7796Z" fill="white"/>
</g>
<defs>
<clipPath id="clip0_10417_3813">
<rect width="24" height="24" fill="white" transform="translate(24 24) rotate(-180)"/>
</clipPath>
</defs>
</svg>
