<svg width="22" height="22" viewBox="0 0 22 22" fill="none" xmlns="http://www.w3.org/2000/svg">
<g clip-path="url(#clip0_10333_1431)">
<mask id="mask0_10333_1431" style="mask-type:luminance" maskUnits="userSpaceOnUse" x="0" y="0" width="22" height="22">
<path d="M22 0H0V22H22V0Z" fill="white"/>
</mask>
<g mask="url(#mask0_10333_1431)">
<path d="M22.0167 -0.0166016L-0.0168918 -0.0163977C-2.22933 -0.0163977 -0.0161306 1.77697 -0.0161306 3.98946V22.0168C-0.0161306 24.2293 1.7774 22.0168 3.98984 22.0168H22.0167C24.2291 22.0168 22.0167 20.2232 22.0167 18.0107V-0.0166016Z" fill="white"/>
<path d="M17.2955 6.70331C17.5682 6.97436 17.5682 7.41269 17.2955 7.68087L9.63645 15.2966C9.36367 15.5678 8.92279 15.5678 8.65298 15.2966L4.70453 11.3748C4.43182 11.1038 4.43182 10.6656 4.70453 10.3972C4.97723 10.1291 5.4182 10.1262 5.68802 10.3972L9.14039 13.8288L16.3091 6.70331C16.5817 6.43223 17.0227 6.43223 17.2926 6.70331H17.2955Z" fill="black"/>
</g>
</g>
<defs>
<clipPath id="clip0_10333_1431">
<rect width="22" height="22" rx="11" fill="white"/>
</clipPath>
</defs>
</svg>
