<svg width="8" height="101" viewBox="0 0 8 101" fill="none" xmlns="http://www.w3.org/2000/svg">
<path d="M3.64645 100.354C3.84171 100.549 4.1583 100.549 4.35356 100.354L7.53554 97.1716C7.7308 96.9763 7.7308 96.6597 7.53554 96.4645C7.34028 96.2692 7.02369 96.2692 6.82843 96.4645L4 99.2929L1.17158 96.4645C0.976315 96.2692 0.659732 96.2692 0.46447 96.4645C0.269208 96.6597 0.269208 96.9763 0.46447 97.1716L3.64645 100.354ZM3.5 2.18557e-08L3.5 1L4.5 1L4.5 -2.18557e-08L3.5 2.18557e-08ZM3.5 3L3.5 5L4.5 5L4.5 3L3.5 3ZM3.5 7L3.5 9L4.5 9L4.5 7L3.5 7ZM3.5 11L3.5 13L4.5 13L4.5 11L3.5 11ZM3.5 15L3.5 17L4.5 17L4.5 15L3.5 15ZM3.5 19L3.5 21L4.5 21L4.5 19L3.5 19ZM3.5 23L3.5 25L4.5 25L4.5 23L3.5 23ZM3.5 27L3.5 29L4.5 29L4.5 27L3.5 27ZM3.5 31L3.5 33L4.5 33L4.5 31L3.5 31ZM3.5 35L3.5 37L4.5 37L4.5 35L3.5 35ZM3.5 39L3.5 41L4.5 41L4.5 39L3.5 39ZM3.5 43L3.5 45L4.5 45L4.5 43L3.5 43ZM3.5 47L3.5 49L4.5 49L4.5 47L3.5 47ZM3.5 51L3.5 53L4.5 53L4.5 51L3.5 51ZM3.5 55L3.5 57L4.5 57L4.5 55L3.5 55ZM3.5 59L3.5 61L4.5 61L4.5 59L3.5 59ZM3.5 63L3.5 65L4.5 65L4.5 63L3.5 63ZM3.5 67L3.5 69L4.5 69L4.5 67L3.5 67ZM3.5 71L3.5 73L4.5 73L4.5 71L3.5 71ZM3.5 75L3.5 77L4.5 77L4.5 75L3.5 75ZM3.5 79L3.5 81L4.5 81L4.5 79L3.5 79ZM3.5 83L3.5 85L4.5 85L4.5 83L3.5 83ZM3.5 87L3.5 89L4.5 89L4.5 87L3.5 87ZM3.5 91L3.5 93L4.5 93L4.5 91L3.5 91ZM3.5 95L3.5 97L4.5 97L4.5 95L3.5 95ZM3.5 99L3.5 100L4.5 100L4.5 99L3.5 99ZM3.64645 100.354C3.84171 100.549 4.1583 100.549 4.35356 100.354L7.53554 97.1716C7.7308 96.9763 7.7308 96.6597 7.53554 96.4645C7.34028 96.2692 7.02369 96.2692 6.82843 96.4645L4 99.2929L1.17158 96.4645C0.976315 96.2692 0.659732 96.2692 0.46447 96.4645C0.269208 96.6597 0.269208 96.9763 0.46447 97.1716L3.64645 100.354ZM3.5 2.18557e-08L3.5 1L4.5 1L4.5 -2.18557e-08L3.5 2.18557e-08ZM3.5 3L3.5 5L4.5 5L4.5 3L3.5 3ZM3.5 7L3.5 9L4.5 9L4.5 7L3.5 7ZM3.5 11L3.5 13L4.5 13L4.5 11L3.5 11ZM3.5 15L3.5 17L4.5 17L4.5 15L3.5 15ZM3.5 19L3.5 21L4.5 21L4.5 19L3.5 19ZM3.5 23L3.5 25L4.5 25L4.5 23L3.5 23ZM3.5 27L3.5 29L4.5 29L4.5 27L3.5 27ZM3.5 31L3.5 33L4.5 33L4.5 31L3.5 31ZM3.5 35L3.5 37L4.5 37L4.5 35L3.5 35ZM3.5 39L3.5 41L4.5 41L4.5 39L3.5 39ZM3.5 43L3.5 45L4.5 45L4.5 43L3.5 43ZM3.5 47L3.5 49L4.5 49L4.5 47L3.5 47ZM3.5 51L3.5 53L4.5 53L4.5 51L3.5 51ZM3.5 55L3.5 57L4.5 57L4.5 55L3.5 55ZM3.5 59L3.5 61L4.5 61L4.5 59L3.5 59ZM3.5 63L3.5 65L4.5 65L4.5 63L3.5 63ZM3.5 67L3.5 69L4.5 69L4.5 67L3.5 67ZM3.5 71L3.5 73L4.5 73L4.5 71L3.5 71ZM3.5 75L3.5 77L4.5 77L4.5 75L3.5 75ZM3.5 79L3.5 81L4.5 81L4.5 79L3.5 79ZM3.5 83L3.5 85L4.5 85L4.5 83L3.5 83ZM3.5 87L3.5 89L4.5 89L4.5 87L3.5 87ZM3.5 91L3.5 93L4.5 93L4.5 91L3.5 91ZM3.5 95L3.5 97L4.5 97L4.5 95L3.5 95ZM3.5 99L3.5 100L4.5 100L4.5 99L3.5 99Z" fill="white"/>
</svg>
